<svg width="24" height="25" viewBox="0 0 24 25" fill="none" xmlns="http://www.w3.org/2000/svg">
<path d="M9.68469 10.1847C9.92172 9.16314 10.8522 8.45484 11.8999 8.49832C13.0726 8.43337 14.0779 9.32697 14.1509 10.4992C14.1509 12.0037 12 12.5 12 13.5004" stroke="#4070F4" stroke-width="1.5" stroke-linecap="round" stroke-linejoin="round"/>
<path d="M12.1252 16.2517C12.1251 16.3207 12.0691 16.3766 12.0001 16.3766C11.9311 16.3766 11.8751 16.3206 11.8751 16.2516C11.8751 16.1826 11.931 16.1266 12 16.1265C12.0332 16.1265 12.0651 16.1396 12.0886 16.1631C12.1121 16.1866 12.1252 16.2185 12.1252 16.2517" stroke="#4070F4" stroke-width="1.5" stroke-linecap="round" stroke-linejoin="round"/>
<path fill-rule="evenodd" clip-rule="evenodd" d="M4.62837 17.6604C1.94527 13.8307 2.63478 8.58534 6.21648 5.57913C9.79818 2.57293 15.0836 2.80335 18.3901 6.10985C21.6966 9.41634 21.927 14.7018 18.9208 18.2835C15.9146 21.8652 10.6693 22.5547 6.83956 19.8716L3.99663 20.5033L4.62837 17.6604Z" stroke="#4070F4" stroke-width="1.5" stroke-linecap="round" stroke-linejoin="round"/>
</svg>
